HIERARCHY
ROOT Hips
{
  OFFSET -31.5692 30.0904 122.763
  CHANNELS 6 Xposition Yposition Zposition Zrotation Xrotation Yrotation
  JOINT LeftUpLeg
  {
    OFFSET 8.64259 1.95398 -2.38835
    CHANNELS 3 Zrotation Xrotation Yrotation
    JOINT LeftLeg
    {
      OFFSET 43.7702 0 0
      CHANNELS 3 Zrotation Xrotation Yrotation
      JOINT LeftFoot
      {
        OFFSET 40.6238 0 0
        CHANNELS 3 Zrotation Xrotation Yrotation
        JOINT LeftToeBase
        {
          OFFSET 12.7242 0 0
          CHANNELS 3 Zrotation Xrotation Yrotation
          End Site
          {
            OFFSET 0 0 0
          }
        }
      }
    }
  }
  JOINT RightUpLeg
  {
    OFFSET -8.2249 1.95398 -2.59336
    CHANNELS 3 Zrotation Xrotation Yrotation
    JOINT RightLeg
    {
      OFFSET 43.5653 0 0
      CHANNELS 3 Zrotation Xrotation Yrotation
      JOINT RightFoot
      {
        OFFSET 40.6238 0 0
        CHANNELS 3 Zrotation Xrotation Yrotation
        JOINT RightToeBase
        {
          OFFSET 12.7242 0 0
          CHANNELS 3 Zrotation Xrotation Yrotation
          End Site
          {
            OFFSET 0 0 0
          }
        }
      }
    }
  }
  JOINT Spine
  {
    OFFSET 0.165834 0.87714 6.61349
    CHANNELS 3 Zrotation Xrotation Yrotation
    JOINT Spine1
    {
      OFFSET 7.38963 1.71661e-005 0
      CHANNELS 3 Zrotation Xrotation Yrotation
      JOINT Spine2
      {
        OFFSET 11.9445 1.14441e-005 0
        CHANNELS 3 Zrotation Xrotation Yrotation
        JOINT Spine3
        {
          OFFSET 14.7254 4.19617e-005 0
          CHANNELS 3 Zrotation Xrotation Yrotation
          JOINT Spine4
          {
            OFFSET 10.9679 0 0
            CHANNELS 3 Zrotation Xrotation Yrotation
            JOINT RightShoulder
            {
              OFFSET 2.46616 -1.6653 3.69651
              CHANNELS 3 Zrotation Xrotation Yrotation
              JOINT RightArm
              {
                OFFSET 13.0012 0 0
                CHANNELS 3 Zrotation Xrotation Yrotation
                JOINT RightForeArm
                {
                  OFFSET 28.7848 1.62311e-005 0
                  CHANNELS 3 Zrotation Xrotation Yrotation
                  JOINT RightHand
                  {
                    OFFSET 26.5688 1.62095e-005 0
                    CHANNELS 3 Zrotation Xrotation Yrotation
                    End Site
                    {
                      OFFSET 0 0 0
                    }
                  }
                }
              }
            }
            JOINT LeftShoulder
            {
              OFFSET 2.38034 -1.29275 -3.7523
              CHANNELS 3 Zrotation Xrotation Yrotation
              JOINT LeftArm
              {
                OFFSET 16.3182 6.07031e-005 0
                CHANNELS 3 Zrotation Xrotation Yrotation
                JOINT LeftForeArm
                {
                  OFFSET 27.0901 0 0
                  CHANNELS 3 Zrotation Xrotation Yrotation
                  JOINT LeftHand
                  {
                    OFFSET 24.5451 1.51738e-005 0
                    CHANNELS 3 Zrotation Xrotation Yrotation
                    End Site
                    {
                      OFFSET 0 0 0
                    }
                  }
                }
              }
            }
            JOINT Neck
            {
              OFFSET 5.0226 -0.0266342 0
              CHANNELS 3 Zrotation Xrotation Yrotation
              JOINT Head
              {
                OFFSET 6.69364 2.86102e-005 0
                CHANNELS 3 Zrotation Xrotation Yrotation
                End Site
                {
                  OFFSET 0 0 0
                }
              }
            }
          }
        }
      }
    }
  }
}
MOTION
Frames:	9
Frame Time:	0.0416667
-25.2575 92.0749 2.71131 101.356 30.9419 75.2123 -174.998 21.5666 76.6191 -51.9202 13.8321 -1.87843 78.3359 11.3716 1.37244 13.8199 -11.3872 7.54045 173.471 15.088 82.4441 -93.2667 -12.6704 -5.80447 64.4913 -2.07335 -4.30083 22.8191 0.862231 7.46547 -0.0779973 7.94485 -89.1011 10.978 0.26107 1.76521 -0.694059 0.338497 1.75201 -23.2196 -0.281435 1.76208 -3.20699 -0.28143 1.76208 93.9703 -21.8726 -101.279 49.0115 -2.24282 4.26723 6.06755 -4.33212 -5.76001 -20.0722 1.01034 -12.1083 -88.3488 -44.0317 80.0056 -1.87071 -2.38168 -13.5064 -1.45907 22.8799 -0.00660352 14.3211 0.580887 -4.57483 1.18819 6.96398 -0.209779 -9.67266 6.58563 6.27467 
-20.4278 96.4835 -0.268421 103.42 29.8782 78.491 -174.931 11.3078 81.7679 -43.3914 14.6923 -0.981848 75.4084 9.86556 0.864835 15.1122 -10.1828 6.76909 174.288 20.4888 87.8051 -89.9916 -0.317878 -4.40718 66.8176 -2.56195 -4.41063 19.4972 2.10362 7.75118 -0.263534 8.09596 -89.7185 10.6827 -0.39512 0.59574 -0.988356 -0.368493 0.612538 -23.5233 -0.555894 0.449447 -3.51066 -0.555879 0.449447 94.1805 -18.8811 -101.87 48.2553 -1.50471 5.19043 5.4962 -2.65108 -5.69922 -18.1683 1.13411 -13.297 -87.2127 -37.2267 80.4342 -5.04666 -1.53007 -15.2275 -2.3757 18.2193 -0.00557784 16.1228 0.391251 -4.87632 -4.21688 7.20787 1.83394 -8.51741 6.70092 6.85983 
-15.6053 102.397 -3.65687 106.344 29.4659 80.9646 -174.542 2.27636 86.2579 -33.8656 16.136 0.380145 61.6788 0.633552 -0.514841 16.1687 -7.84384 3.46614 174.731 20.1641 91.0855 -78.9695 -0.0933459 -3.35106 66.7651 -2.0964 -4.44672 19.0783 2.47155 7.07214 -0.341468 8.30254 -90.3845 10.2646 -0.855989 -0.689432 -1.40621 -0.88551 -0.651095 -23.9411 -0.609235 -0.91481 -3.92849 -0.609231 -0.914815 93.8141 -16.6697 -103.667 46.9067 -1.80283 7.69502 6.35675 -5.42716 -6.11 -17.3909 1.17034 -14.6529 -86.3498 -35.2411 81.5289 -7.47562 -2.56627 -16.4006 -1.30483 19.2569 -0.00455037 17.0497 -0.121236 -7.35895 -13.958 6.50436 6.29155 -4.87857 6.35747 6.40863 
-11.0815 107.104 -6.69831 107.02 30.8585 82.4048 -174.663 1.05063 88.7035 -31.7225 21.9747 1.89285 50.3706 -6.84129 -2.97607 9.53524 -10.1466 0.806694 175.377 19.5604 91.9982 -66.3302 -2.6451 -2.52513 67.7455 -2.93732 -2.43284 20.3543 2.11085 6.5001 -0.319834 8.33935 -90.7031 10.1865 -0.95809 -1.31419 -1.48472 -1.01499 -1.27076 -24.0155 -0.518899 -1.54133 -4.00283 -0.518871 -1.54133 92.9025 -17.1508 -105.74 44.8879 -1.98703 10.9197 7.62065 -8.92614 -5.70159 -17.5422 1.10662 -15.1386 -86.0834 -33.0469 81.5391 -9.8644 -1.74142 -18.1821 -1.5921 19.6733 -0.00357194 17.9315 -0.331817 -8.06521 -20.781 4.9733 5.48201 -1.53443 5.40197 6.91836 
-7.04837 109.094 -9.14153 106.004 34.3756 81.8559 -175.304 6.08313 88.8076 -36.958 24.3576 2.01592 48.5051 -8.01928 -3.71034 11.3989 -10.4311 3.16956 175.417 20.2122 90.4942 -54.7108 -2.52363 -2.12584 70.1078 -4.65573 -1.78367 22.9828 1.56632 4.44392 -0.362915 8.31009 -90.6164 10.2475 -1.00462 -1.13826 -1.42353 -1.05373 -1.09296 -23.9561 -0.616112 -1.38753 -3.94345 -0.616111 -1.38754 92.7074 -18.2924 -105.697 45.1345 -1.812 13.0303 8.31148 -10.1486 -4.98443 -16.2827 0.916597 -14.8562 -86.0201 -33.1617 81.6815 -9.848 -0.524483 -21.4614 -2.6412 20.2239 -0.00297111 17.0828 -0.0725077 -7.03054 -21.7663 3.52234 3.34564 -0.0491377 3.94125 5.86143 
-2.97938 109.486 -11.2557 106.683 37.374 80.851 -174.198 9.59428 89.7571 -36.7838 22.6088 0.738535 47.2583 -8.68527 -5.14601 19.55 -7.73032 7.16792 175.743 17.2097 89.6872 -40.4739 -2.74542 -2.32536 72.1156 -6.26774 -0.510415 25.5447 0.273169 5.3312 -0.315595 8.43579 -90.5077 9.9979 -0.859867 -0.936772 -1.67307 -0.900237 -0.898024 -24.2066 -0.538575 -1.15185 -4.19394 -0.538561 -1.15186 92.6651 -19.9124 -105.084 46.3978 -0.993586 15.0079 8.08225 -9.72557 -5.05736 -16.0084 0.913764 -14.8848 -86.2333 -32.7768 81.1996 -12.5705 -0.255131 -23.8401 -1.87272 21.9645 -0.00307959 15.6302 0.125333 -6.7965 -21.3787 2.29973 0.281086 0.157008 2.54506 5.81333 
1.09254 108.035 -13.3776 106 40.0604 81.2692 -173.64 13.4182 90.7489 -31.8575 16.249 -0.508397 50.8414 -6.74011 -4.37205 12.7604 -10.1397 4.04982 175.494 14.4022 89.154 -25.856 -8.05547 -1.8053 69.3846 -5.68 -0.832908 28.5593 -0.290269 1.95263 -0.337889 8.44375 -90.4403 9.98264 -0.87345 -0.802166 -1.68824 -0.907902 -0.762955 -24.2226 -0.591998 -1.02758 -4.20999 -0.592004 -1.02758 92.3918 -21.1919 -105.178 47.5888 -0.448745 16.1619 7.8365 -10.155 -5.57579 -16.236 0.930933 -14.9907 -86.169 -34.1691 81.6262 -12.9698 2.05765 -22.919 -3.31311 20.6482 -0.00405988 16.4338 0.181602 -5.98445 -20.1709 1.66003 -1.60108 -0.389837 1.76691 4.97539 
5.15942 104.321 -15.4459 102.886 43.1444 83.6141 -174.923 19.5048 91.1705 -28.2709 12.9179 -0.272983 58.5791 -2.15204 -3.01978 8.85807 -14.4934 7.48243 174.453 16.135 89.0542 -19.4857 -10.1067 -0.0263518 66.9051 -4.68174 -0.567941 29.6371 -0.619698 1.15094 -0.413753 8.34747 -90.4576 10.1748 -1.03314 -0.820759 -1.49598 -1.06826 -0.774496 -24.031 -0.738722 -1.0933 -4.01833 -0.738724 -1.0933 92.0915 -22.5103 -105.317 47.9935 -0.71103 15.9055 7.74911 -9.24518 -6.16438 -16.3972 1.01818 -15.2721 -86.3856 -36.8447 81.8069 -13.845 3.40412 -21.3267 -3.6759 20.0728 -0.00553824 15.9583 0.356023 -5.04046 -15.8822 1.25183 -3.64281 -2.35492 1.32524 5.04188 
9.26283 98.0679 -17.4558 100.168 45.0494 85.9729 -178.338 28.5299 92.2078 -36.3387 28.5811 2.65231 57.2163 -2.58891 -1.11958 6.40485 -14.7536 5.42875 172.64 23.8667 89.6768 -31.3974 -8.21177 2.20454 67.7325 -4.20124 0.531073 31.1175 -1.0741 0.121734 -0.378713 8.36518 -90.469 10.1392 -0.968428 -0.84937 -1.53162 -1.00488 -0.80593 -24.0661 -0.668418 -1.10114 -4.05348 -0.668402 -1.10114 90.9688 -25.5495 -106.526 46.0458 -1.18359 14.9841 7.75697 -8.81041 -6.60856 -16.4331 1.07057 -15.5164 -87.3163 -40.6869 81.0011 -13.4406 4.18782 -19.888 -4.20059 19.9452 -0.00678852 14.766 0.591583 -3.94507 -7.32937 0.835533 -5.64917 -5.96792 1.18911 4.22816 
